# xmcd
# 
# Track frame offsets:
#     150
#     19245
#     44880
#     67905
#     88813
#     106098
#     127158
#     153899
#     167688
#     189228
#     213213
#     239628
#     261758
#     282908
# 
# Disc length: 3995
# 
# Revision: 1
# Processed by: cddbd v1.5.2PL0 Copyright (c) Steve Scherf et al.
# Submitted via: fre:ac v1.0.31
# 
DISCID=c50f990e
DTITLE=Climax Blues Band - Hands of Time
DYEAR=2019
DGENRE=Blues
TTITLE0=Ain't That a Kick In the Head
TTITLE1=Straight Down the Middle
TTITLE2=What's Your Name
TTITLE3=Flood of Emotion
TTITLE4=Top of the World
TTITLE5=My Music
TTITLE6=17th Street Canal
TTITLE7=Simple Song
TTITLE8=The Cat
TTITLE9=Hands of Time
TTITLE10=Faith
TTITLE11=Hard Luck
TTITLE12=Wrong Time
TTITLE13=Getting There
EXTD=
EXTT0=
EXTT1=
EXTT2=
EXTT3=
EXTT4=
EXTT5=
EXTT6=
EXTT7=
EXTT8=
EXTT9=
EXTT10=
EXTT11=
EXTT12=
EXTT13=
PLAYORDER=
